<svg xmlns="http://www.w3.org/2000/svg" viewBox="0 0 800 600" preserveAspectRatio="xMidYMid slice" role="img">
<defs><linearGradient id="sky" x1="0" y1="0" x2="0" y2="1"><stop offset="0" stop-color="#8c0909"/><stop offset="1" stop-color="#3d0202"/></linearGradient></defs>
<rect width="800" height="600" fill="url(#sky)"/>
<circle cx="590" cy="190" r="70" fill="#d6a447" opacity=".9"/><rect x="-20" y="255" width="89" height="205" fill="#5a0303"/><rect x="78" y="313" width="83" height="147" fill="#5a0303"/><rect x="172" y="307" width="65" height="153" fill="#5a0303"/><rect x="243" y="225" width="57" height="235" fill="#5a0303"/><rect x="311" y="223" width="65" height="237" fill="#5a0303"/><rect x="388" y="174" width="56" height="286" fill="#5a0303"/><rect x="451" y="265" width="50" height="195" fill="#5a0303"/><rect x="511" y="274" width="67" height="186" fill="#5a0303"/><rect x="588" y="302" width="60" height="158" fill="#5a0303"/><rect x="654" y="162" width="89" height="298" fill="#5a0303"/><rect x="754" y="287" width="58" height="173" fill="#5a0303"/><rect x="-10" y="379" width="115" height="91" fill="#2a0101"/><rect x="-2" y="393" width="6" height="9" fill="#d6a447" opacity="0.5"/><rect x="12" y="393" width="6" height="9" fill="#d6a447" opacity="0.5"/><rect x="54" y="393" width="6" height="9" fill="#d6a447" opacity="0.5"/><rect x="12" y="411" width="6" height="9" fill="#d6a447" opacity="0.5"/><rect x="82" y="411" width="6" height="9" fill="#d6a447" opacity="0.5"/><rect x="-2" y="429" width="6" height="9" fill="#d6a447" opacity="0.5"/><rect x="12" y="429" width="6" height="9" fill="#d6a447" opacity="0.5"/><rect x="26" y="429" width="6" height="9" fill="#d6a447" opacity="0.5"/><rect x="40" y="429" width="6" height="9" fill="#d6a447" opacity="0.5"/><rect x="54" y="429" width="6" height="9" fill="#d6a447" opacity="0.5"/><rect x="82" y="429" width="6" height="9" fill="#d6a447" opacity="0.5"/><rect x="12" y="447" width="6" height="9" fill="#d6a447" opacity="0.5"/><rect x="26" y="447" width="6" height="9" fill="#d6a447" opacity="0.5"/><rect x="68" y="447" width="6" height="9" fill="#d6a447" opacity="0.5"/><rect x="120" y="315" width="63" height="155" fill="#2a0101"/><rect x="142" y="329" width="6" height="9" fill="#d6a447" opacity="0.5"/><rect x="128" y="347" width="6" height="9" fill="#d6a447" opacity="0.5"/><rect x="156" y="347" width="6" height="9" fill="#d6a447" opacity="0.5"/><rect x="128" y="365" width="6" height="9" fill="#d6a447" opacity="0.5"/><rect x="142" y="365" width="6" height="9" fill="#d6a447" opacity="0.5"/><rect x="156" y="365" width="6" height="9" fill="#d6a447" opacity="0.5"/><rect x="128" y="383" width="6" height="9" fill="#d6a447" opacity="0.5"/><rect x="128" y="401" width="6" height="9" fill="#d6a447" opacity="0.5"/><rect x="142" y="401" width="6" height="9" fill="#d6a447" opacity="0.5"/><rect x="128" y="419" width="6" height="9" fill="#d6a447" opacity="0.5"/><rect x="128" y="437" width="6" height="9" fill="#d6a447" opacity="0.5"/><rect x="156" y="437" width="6" height="9" fill="#d6a447" opacity="0.5"/><rect x="170" y="437" width="6" height="9" fill="#d6a447" opacity="0.5"/><rect x="156" y="455" width="6" height="9" fill="#d6a447" opacity="0.5"/><rect x="210" y="301" width="65" height="169" fill="#2a0101"/><rect x="232" y="315" width="6" height="9" fill="#d6a447" opacity="0.5"/><rect x="232" y="333" width="6" height="9" fill="#d6a447" opacity="0.5"/><rect x="218" y="351" width="6" height="9" fill="#d6a447" opacity="0.5"/><rect x="260" y="351" width="6" height="9" fill="#d6a447" opacity="0.5"/><rect x="232" y="369" width="6" height="9" fill="#d6a447" opacity="0.5"/><rect x="246" y="369" width="6" height="9" fill="#d6a447" opacity="0.5"/><rect x="218" y="387" width="6" height="9" fill="#d6a447" opacity="0.5"/><rect x="218" y="405" width="6" height="9" fill="#d6a447" opacity="0.5"/><rect x="232" y="405" width="6" height="9" fill="#d6a447" opacity="0.5"/><rect x="218" y="423" width="6" height="9" fill="#d6a447" opacity="0.5"/><rect x="246" y="423" width="6" height="9" fill="#d6a447" opacity="0.5"/><rect x="260" y="423" width="6" height="9" fill="#d6a447" opacity="0.5"/><rect x="218" y="441" width="6" height="9" fill="#d6a447" opacity="0.5"/><rect x="232" y="441" width="6" height="9" fill="#d6a447" opacity="0.5"/><rect x="246" y="441" width="6" height="9" fill="#d6a447" opacity="0.5"/><rect x="260" y="441" width="6" height="9" fill="#d6a447" opacity="0.5"/><rect x="246" y="459" width="6" height="9" fill="#d6a447" opacity="0.5"/><rect x="300" y="194" width="104" height="276" fill="#2a0101"/><rect x="308" y="208" width="6" height="9" fill="#d6a447" opacity="0.5"/><rect x="322" y="208" width="6" height="9" fill="#d6a447" opacity="0.5"/><rect x="364" y="208" width="6" height="9" fill="#d6a447" opacity="0.5"/><rect x="308" y="226" width="6" height="9" fill="#d6a447" opacity="0.5"/><rect x="350" y="226" width="6" height="9" fill="#d6a447" opacity="0.5"/><rect x="322" y="244" width="6" height="9" fill="#d6a447" opacity="0.5"/><rect x="350" y="244" width="6" height="9" fill="#d6a447" opacity="0.5"/><rect x="378" y="244" width="6" height="9" fill="#d6a447" opacity="0.5"/><rect x="392" y="244" width="6" height="9" fill="#d6a447" opacity="0.5"/><rect x="350" y="262" width="6" height="9" fill="#d6a447" opacity="0.5"/><rect x="308" y="280" width="6" height="9" fill="#d6a447" opacity="0.5"/><rect x="322" y="280" width="6" height="9" fill="#d6a447" opacity="0.5"/><rect x="378" y="280" width="6" height="9" fill="#d6a447" opacity="0.5"/><rect x="392" y="280" width="6" height="9" fill="#d6a447" opacity="0.5"/><rect x="308" y="298" width="6" height="9" fill="#d6a447" opacity="0.5"/><rect x="350" y="298" width="6" height="9" fill="#d6a447" opacity="0.5"/><rect x="364" y="298" width="6" height="9" fill="#d6a447" opacity="0.5"/><rect x="378" y="298" width="6" height="9" fill="#d6a447" opacity="0.5"/><rect x="308" y="316" width="6" height="9" fill="#d6a447" opacity="0.5"/><rect x="336" y="316" width="6" height="9" fill="#d6a447" opacity="0.5"/><rect x="364" y="316" width="6" height="9" fill="#d6a447" opacity="0.5"/><rect x="378" y="316" width="6" height="9" fill="#d6a447" opacity="0.5"/><rect x="392" y="316" width="6" height="9" fill="#d6a447" opacity="0.5"/><rect x="308" y="334" width="6" height="9" fill="#d6a447" opacity="0.5"/><rect x="336" y="334" width="6" height="9" fill="#d6a447" opacity="0.5"/><rect x="350" y="334" width="6" height="9" fill="#d6a447" opacity="0.5"/><rect x="378" y="334" width="6" height="9" fill="#d6a447" opacity="0.5"/><rect x="392" y="334" width="6" height="9" fill="#d6a447" opacity="0.5"/><rect x="322" y="352" width="6" height="9" fill="#d6a447" opacity="0.5"/><rect x="392" y="352" width="6" height="9" fill="#d6a447" opacity="0.5"/><rect x="336" y="370" width="6" height="9" fill="#d6a447" opacity="0.5"/><rect x="364" y="370" width="6" height="9" fill="#d6a447" opacity="0.5"/><rect x="308" y="388" width="6" height="9" fill="#d6a447" opacity="0.5"/><rect x="336" y="388" width="6" height="9" fill="#d6a447" opacity="0.5"/><rect x="392" y="388" width="6" height="9" fill="#d6a447" opacity="0.5"/><rect x="322" y="406" width="6" height="9" fill="#d6a447" opacity="0.5"/><rect x="378" y="406" width="6" height="9" fill="#d6a447" opacity="0.5"/><rect x="392" y="406" width="6" height="9" fill="#d6a447" opacity="0.5"/><rect x="322" y="424" width="6" height="9" fill="#d6a447" opacity="0.5"/><rect x="336" y="424" width="6" height="9" fill="#d6a447" opacity="0.5"/><rect x="364" y="424" width="6" height="9" fill="#d6a447" opacity="0.5"/><rect x="378" y="424" width="6" height="9" fill="#d6a447" opacity="0.5"/><rect x="392" y="442" width="6" height="9" fill="#d6a447" opacity="0.5"/><rect x="423" y="249" width="94" height="221" fill="#2a0101"/><rect x="431" y="263" width="6" height="9" fill="#d6a447" opacity="0.5"/><rect x="487" y="263" width="6" height="9" fill="#d6a447" opacity="0.5"/><rect x="445" y="281" width="6" height="9" fill="#d6a447" opacity="0.5"/><rect x="459" y="281" width="6" height="9" fill="#d6a447" opacity="0.5"/><rect x="459" y="299" width="6" height="9" fill="#d6a447" opacity="0.5"/><rect x="487" y="299" width="6" height="9" fill="#d6a447" opacity="0.5"/><rect x="501" y="299" width="6" height="9" fill="#d6a447" opacity="0.5"/><rect x="459" y="317" width="6" height="9" fill="#d6a447" opacity="0.5"/><rect x="501" y="317" width="6" height="9" fill="#d6a447" opacity="0.5"/><rect x="431" y="335" width="6" height="9" fill="#d6a447" opacity="0.5"/><rect x="445" y="335" width="6" height="9" fill="#d6a447" opacity="0.5"/><rect x="459" y="335" width="6" height="9" fill="#d6a447" opacity="0.5"/><rect x="487" y="335" width="6" height="9" fill="#d6a447" opacity="0.5"/><rect x="459" y="353" width="6" height="9" fill="#d6a447" opacity="0.5"/><rect x="501" y="353" width="6" height="9" fill="#d6a447" opacity="0.5"/><rect x="431" y="371" width="6" height="9" fill="#d6a447" opacity="0.5"/><rect x="473" y="371" width="6" height="9" fill="#d6a447" opacity="0.5"/><rect x="501" y="371" width="6" height="9" fill="#d6a447" opacity="0.5"/><rect x="445" y="389" width="6" height="9" fill="#d6a447" opacity="0.5"/><rect x="459" y="389" width="6" height="9" fill="#d6a447" opacity="0.5"/><rect x="501" y="389" width="6" height="9" fill="#d6a447" opacity="0.5"/><rect x="445" y="407" width="6" height="9" fill="#d6a447" opacity="0.5"/><rect x="487" y="407" width="6" height="9" fill="#d6a447" opacity="0.5"/><rect x="501" y="407" width="6" height="9" fill="#d6a447" opacity="0.5"/><rect x="431" y="425" width="6" height="9" fill="#d6a447" opacity="0.5"/><rect x="459" y="425" width="6" height="9" fill="#d6a447" opacity="0.5"/><rect x="459" y="443" width="6" height="9" fill="#d6a447" opacity="0.5"/><rect x="487" y="443" width="6" height="9" fill="#d6a447" opacity="0.5"/><rect x="537" y="305" width="99" height="165" fill="#2a0101"/><rect x="559" y="319" width="6" height="9" fill="#d6a447" opacity="0.5"/><rect x="573" y="319" width="6" height="9" fill="#d6a447" opacity="0.5"/><rect x="615" y="319" width="6" height="9" fill="#d6a447" opacity="0.5"/><rect x="545" y="337" width="6" height="9" fill="#d6a447" opacity="0.5"/><rect x="587" y="337" width="6" height="9" fill="#d6a447" opacity="0.5"/><rect x="615" y="337" width="6" height="9" fill="#d6a447" opacity="0.5"/><rect x="545" y="355" width="6" height="9" fill="#d6a447" opacity="0.5"/><rect x="573" y="391" width="6" height="9" fill="#d6a447" opacity="0.5"/><rect x="587" y="391" width="6" height="9" fill="#d6a447" opacity="0.5"/><rect x="573" y="409" width="6" height="9" fill="#d6a447" opacity="0.5"/><rect x="587" y="409" width="6" height="9" fill="#d6a447" opacity="0.5"/><rect x="573" y="427" width="6" height="9" fill="#d6a447" opacity="0.5"/><rect x="601" y="427" width="6" height="9" fill="#d6a447" opacity="0.5"/><rect x="545" y="445" width="6" height="9" fill="#d6a447" opacity="0.5"/><rect x="559" y="445" width="6" height="9" fill="#d6a447" opacity="0.5"/><rect x="573" y="445" width="6" height="9" fill="#d6a447" opacity="0.5"/><rect x="601" y="445" width="6" height="9" fill="#d6a447" opacity="0.5"/><rect x="615" y="445" width="6" height="9" fill="#d6a447" opacity="0.5"/><rect x="648" y="201" width="85" height="269" fill="#2a0101"/><rect x="670" y="215" width="6" height="9" fill="#d6a447" opacity="0.5"/><rect x="684" y="215" width="6" height="9" fill="#d6a447" opacity="0.5"/><rect x="656" y="233" width="6" height="9" fill="#d6a447" opacity="0.5"/><rect x="712" y="233" width="6" height="9" fill="#d6a447" opacity="0.5"/><rect x="656" y="251" width="6" height="9" fill="#d6a447" opacity="0.5"/><rect x="670" y="251" width="6" height="9" fill="#d6a447" opacity="0.5"/><rect x="698" y="251" width="6" height="9" fill="#d6a447" opacity="0.5"/><rect x="712" y="251" width="6" height="9" fill="#d6a447" opacity="0.5"/><rect x="698" y="269" width="6" height="9" fill="#d6a447" opacity="0.5"/><rect x="656" y="287" width="6" height="9" fill="#d6a447" opacity="0.5"/><rect x="670" y="287" width="6" height="9" fill="#d6a447" opacity="0.5"/><rect x="698" y="287" width="6" height="9" fill="#d6a447" opacity="0.5"/><rect x="712" y="287" width="6" height="9" fill="#d6a447" opacity="0.5"/><rect x="684" y="305" width="6" height="9" fill="#d6a447" opacity="0.5"/><rect x="656" y="323" width="6" height="9" fill="#d6a447" opacity="0.5"/><rect x="670" y="323" width="6" height="9" fill="#d6a447" opacity="0.5"/><rect x="712" y="323" width="6" height="9" fill="#d6a447" opacity="0.5"/><rect x="684" y="341" width="6" height="9" fill="#d6a447" opacity="0.5"/><rect x="698" y="341" width="6" height="9" fill="#d6a447" opacity="0.5"/><rect x="712" y="341" width="6" height="9" fill="#d6a447" opacity="0.5"/><rect x="670" y="359" width="6" height="9" fill="#d6a447" opacity="0.5"/><rect x="670" y="377" width="6" height="9" fill="#d6a447" opacity="0.5"/><rect x="684" y="377" width="6" height="9" fill="#d6a447" opacity="0.5"/><rect x="698" y="377" width="6" height="9" fill="#d6a447" opacity="0.5"/><rect x="712" y="377" width="6" height="9" fill="#d6a447" opacity="0.5"/><rect x="670" y="395" width="6" height="9" fill="#d6a447" opacity="0.5"/><rect x="656" y="413" width="6" height="9" fill="#d6a447" opacity="0.5"/><rect x="698" y="413" width="6" height="9" fill="#d6a447" opacity="0.5"/><rect x="670" y="431" width="6" height="9" fill="#d6a447" opacity="0.5"/><rect x="712" y="431" width="6" height="9" fill="#d6a447" opacity="0.5"/><rect x="684" y="449" width="6" height="9" fill="#d6a447" opacity="0.5"/><rect x="749" y="201" width="68" height="269" fill="#2a0101"/><rect x="771" y="215" width="6" height="9" fill="#d6a447" opacity="0.5"/><rect x="785" y="215" width="6" height="9" fill="#d6a447" opacity="0.5"/><rect x="799" y="215" width="6" height="9" fill="#d6a447" opacity="0.5"/><rect x="771" y="233" width="6" height="9" fill="#d6a447" opacity="0.5"/><rect x="785" y="233" width="6" height="9" fill="#d6a447" opacity="0.5"/><rect x="799" y="233" width="6" height="9" fill="#d6a447" opacity="0.5"/><rect x="799" y="251" width="6" height="9" fill="#d6a447" opacity="0.5"/><rect x="771" y="287" width="6" height="9" fill="#d6a447" opacity="0.5"/><rect x="785" y="287" width="6" height="9" fill="#d6a447" opacity="0.5"/><rect x="799" y="287" width="6" height="9" fill="#d6a447" opacity="0.5"/><rect x="757" y="305" width="6" height="9" fill="#d6a447" opacity="0.5"/><rect x="771" y="305" width="6" height="9" fill="#d6a447" opacity="0.5"/><rect x="771" y="323" width="6" height="9" fill="#d6a447" opacity="0.5"/><rect x="771" y="341" width="6" height="9" fill="#d6a447" opacity="0.5"/><rect x="799" y="341" width="6" height="9" fill="#d6a447" opacity="0.5"/><rect x="757" y="359" width="6" height="9" fill="#d6a447" opacity="0.5"/><rect x="771" y="359" width="6" height="9" fill="#d6a447" opacity="0.5"/><rect x="785" y="359" width="6" height="9" fill="#d6a447" opacity="0.5"/><rect x="799" y="359" width="6" height="9" fill="#d6a447" opacity="0.5"/><rect x="771" y="377" width="6" height="9" fill="#d6a447" opacity="0.5"/><rect x="785" y="377" width="6" height="9" fill="#d6a447" opacity="0.5"/><rect x="799" y="377" width="6" height="9" fill="#d6a447" opacity="0.5"/><rect x="757" y="395" width="6" height="9" fill="#d6a447" opacity="0.5"/><rect x="771" y="395" width="6" height="9" fill="#d6a447" opacity="0.5"/><rect x="785" y="395" width="6" height="9" fill="#d6a447" opacity="0.5"/><rect x="757" y="413" width="6" height="9" fill="#d6a447" opacity="0.5"/><rect x="785" y="413" width="6" height="9" fill="#d6a447" opacity="0.5"/><rect x="757" y="449" width="6" height="9" fill="#d6a447" opacity="0.5"/><rect x="785" y="449" width="6" height="9" fill="#d6a447" opacity="0.5"/><rect y="470" width="800" height="130" fill="#2a0101"/><rect x="57" y="492" width="111" height="3" fill="#d6a447" opacity=".35"/><rect x="405" y="509" width="66" height="3" fill="#d6a447" opacity=".35"/><rect x="334" y="526" width="119" height="3" fill="#d6a447" opacity=".35"/><rect x="376" y="543" width="80" height="3" fill="#d6a447" opacity=".35"/><rect x="356" y="560" width="162" height="3" fill="#d6a447" opacity=".35"/><rect x="401" y="577" width="153" height="3" fill="#d6a447" opacity=".35"/>
</svg>
